<svg preserveAspectRatio="xMidYMid meet" viewBox="0 13.463999999999999 305.085201793722 345.576" xmlns="http://www.w3.org/2000/svg" version="1.0" style="max-height: 500px" width="305.085201793722" height="345.576">

<g stroke="none" fill="#c41e3a" transform="translate(0.000000,374.000000) scale(0.100000,-0.100000)">
<path d="M1420 3343 c-25 -14 -144 -79 -265 -145 -251 -138 -338 -188 -332&#10;-194 2 -3 85 -7 183 -9 172 -5 181 -4 220 17 23 13 68 37 100 55 33 18 77 43&#10;100 57 48 29 40 32 200 -67 l91 -56 196 -3 c108 -2 197 0 197 4 0 4 -11 13&#10;-24 20 -28 15 -243 135 -266 148 -15 9 -103 58 -205 115 -27 15 -73 40 -100&#10;56 l-51 28 -44 -26z"/>
<path d="M535 2938 c-3 -7 -6 -38 -7 -68 -3 -54 -3 -54 35 -72 48 -23 50 -49&#10;3 -41 -34 5 -50 -4 -38 -24 4 -6 31 -23 60 -38 54 -28 112 -88 112 -115 0 -9&#10;-11 -3 -28 18 -15 18 -36 32 -48 32 -12 0 -33 10 -48 21 -49 38 -51 27 -54&#10;-317 -2 -257 -1 -314 10 -308 51 29 80 63 165 192 190 291 208 317 221 331 10&#10;10 32 14 68 12 51 -2 54 -1 65 26 32 81 54 125 69 138 16 14 17 12 12 -37 -2&#10;-29 -13 -68 -23 -86 -17 -29 -17 -33 -3 -39 9 -3 102 -3 208 1 236 10 257 11&#10;279 21 11 4 17 3 17 -5 0 -15 -47 -95 -64 -109 -9 -8 -14 -40 -14 -101 -1&#10;-102 10 -122 78 -140 19 -5 64 -28 100 -50 73 -45 82 -47 125 -24 39 20 131&#10;44 170 44 27 0 37 10 103 108 40 59 110 161 156 227 232 337 269 391 273 403&#10;4 9 -64 12 -323 11 -181 0 -347 -3 -368 -7 -36 -6 -43 -13 -70 -66 -17 -33&#10;-36 -61 -42 -63 -6 -2 -21 24 -34 57 -12 33 -28 63 -34 67 -18 12 -376 15&#10;-376 3 0 -5 5 -10 10 -10 21 0 8 -25 -37 -74 -26 -28 -52 -53 -56 -55 -12 -5&#10;11 39 39 72 20 23 22 31 12 52 -10 22 -13 23 -27 11 -23 -19 -154 -75 -193&#10;-82 -31 -5 -32 -5 -13 10 11 8 24 19 29 25 4 5 17 18 27 30 10 12 19 23 19 25&#10;0 3 -101 5 -225 5 -157 1 -225 -2 -225 -10 0 -6 23 -32 50 -59 47 -45 62 -70&#10;41 -70 -9 0 -47 29 -131 98 -55 44 -68 50 -75 30z m1820 -28 c3 -5 -3 -10 -14&#10;-10 -12 0 -21 5 -21 10 0 6 6 10 14 10 8 0 18 -4 21 -10z m-132 -12 c33 -16&#10;37 -43 5 -34 -13 3 -31 6 -40 6 -11 0 -18 8 -18 20 0 23 15 25 53 8z m203 -38&#10;c9 0 12 -5 9 -10 -4 -6 -10 -8 -15 -5 -5 3 -19 1 -31 -5 -11 -7 -23 -9 -26 -6&#10;-9 9 21 35 35 31 8 -3 20 -5 28 -5z m-116 -40 c0 -5 -5 -10 -11 -10 -5 0 -7 5&#10;-4 10 3 6 8 10 11 10 2 0 4 -4 4 -10z"/>
<path d="M2284 2465 l-57 -87 16 -32 c83 -159 178 -334 214 -393 23 -40 43&#10;-77 43 -82 0 -16 -58 -111 -103 -170 -23 -30 -112 -158 -197 -285 l-155 -231&#10;-75 -5 c-54 -4 -86 -12 -114 -28 -44 -26 -58 -22 -31 8 18 20 18 20 -233 20&#10;-151 0 -252 4 -252 9 0 6 30 53 68 105 37 53 92 133 122 179 30 46 72 108 92&#10;137 31 45 35 56 26 76 -11 23 -54 40 -93 35 -16 -1 -27 11 -48 53 -16 31 -33&#10;58 -38 61 -15 10 -10 22 12 28 13 3 18 10 14 17 -5 9 -10 9 -18 1 -14 -14 -70&#10;-15 -62 -1 3 5 24 14 45 20 22 6 40 14 40 18 0 13 87 123 110 139 21 15 22 15&#10;15 -8 -4 -13 -19 -49 -32 -79 -14 -30 -31 -68 -38 -84 -20 -45 1 -106 44 -128&#10;18 -9 43 -26 55 -37 12 -12 25 -21 28 -21 4 0 17 17 29 38 13 20 32 46 42 58&#10;9 11 54 74 98 139 44 65 91 132 105 148 14 16 32 43 40 60 l16 30 -41 -7 c-23&#10;-3 -50 -10 -59 -15 -75 -36 -91 -41 -148 -39 -39 1 -68 -3 -77 -11 -24 -19&#10;-42 -3 -22 19 15 17 15 23 4 49 -14 32 -24 38 -34 21 -4 -6 -12 -7 -22 -1 -9&#10;4 -24 6 -34 4 -13 -4 -22 2 -29 21 -5 14 -13 26 -18 26 -4 0 -18 20 -30 45&#10;-17 35 -20 51 -12 65 17 33 10 46 -10 20 -20 -25 -22 -54 -5 -94 8 -17 7 -18&#10;-16 -3 -28 19 -35 15 -72 -39 -31 -46 -33 -54 -12 -54 8 0 15 -5 15 -10 0 -6&#10;9 -23 19 -38 23 -32 37 -92 22 -92 -13 0 -41 53 -41 78 0 15 -7 19 -34 18 -36&#10;-1 -55 -21 -135 -141 -76 -113 -82 -125 -63 -118 9 3 22 10 28 14 6 5 13 6 16&#10;3 3 -2 30 4 59 16 30 11 71 20 92 20 30 0 40 4 44 20 3 11 10 20 15 20 6 0 7&#10;-11 4 -26 -4 -15 -9 -39 -13 -54 -4 -25 -25 -39 -55 -40 -15 0 -8 19 10 24 9&#10;3 -8 3 -38 1 -37 -3 -59 -10 -68 -22 -9 -13 -31 -19 -79 -23 l-67 -5 -41 -61&#10;c-23 -34 -104 -153 -180 -265 -76 -112 -164 -238 -195 -280 -65 -85 -268 -383&#10;-277 -405 -4 -12 52 -14 390 -14 452 0 405 -11 448 99 33 85 40 85 39 1 -1&#10;-41 -1 -80 -1 -87 1 -16 528 -18 547 -2 19 15 18 73 -1 89 -13 11 -21 40 -11&#10;40 2 0 33 -14 70 -31 59 -28 67 -35 76 -70 l11 -39 84 0 c90 0 99 6 70 44 -17&#10;23 -19 54 -5 76 14 20 23 4 40 -66 l13 -54 134 0 133 0 1 48 c1 26 1 51 0 55&#10;-1 5 -2 189 -2 410 0 299 4 410 13 435 30 78 52 -19 38 -168 -5 -52 -6 -98 -2&#10;-102 5 -5 24 22 44 60 20 37 71 125 112 196 42 72 76 135 76 141 0 6 -41 80&#10;-91 165 -50 85 -132 229 -181 320 -49 91 -96 171 -103 179 -11 11 -22 0 -71&#10;-74z m-834 -471 c0 -8 -5 -12 -10 -9 -6 4 -8 11 -5 16 9 14 15 11 15 -7z&#10;m1150 -118 c0 -8 -4 -18 -10 -21 -5 -3 -10 3 -10 14 0 12 5 21 10 21 6 0 10&#10;-6 10 -14z m-1016 -231 c-6 -16 -24 -21 -24 -7 0 11 11 22 21 22 5 0 6 -7 3&#10;-15z m-948 -591 c-3 -9 -6 -20 -6 -25 0 -5 -7 -9 -15 -9 -18 0 -18 5 -5 31 13&#10;23 35 26 26 3z m1715 -34 c10 0 19 -4 19 -10 0 -12 -67 -13 -74 -1 -8 12 6 22&#10;22 16 7 -3 22 -5 33 -5z m74 -36 c9 -9 14 -18 12 -20 -7 -8 -57 15 -57 26 0&#10;15 27 12 45 -6z m-1825 1 c0 -2 -9 -9 -20 -15 -16 -9 -18 -8 -14 5 5 13 34 22&#10;34 10z m-70 -81 c-18 -21 -24 -10 -8 15 7 12 14 17 16 11 2 -6 -2 -17 -8 -26z&#10;m134 -22 c2 -4 -2 -16 -10 -27 -10 -14 -17 -16 -25 -8 -8 8 -8 15 2 27 16 17&#10;26 20 33 8z m-106 -27 c2 -2 -15 -6 -38 -10 -44 -7 -56 -3 -45 15 5 9 71 5 83&#10;-5z"/>
<path d="M414 2248 c-20 -40 -45 -84 -54 -98 -33 -47 -160 -268 -160 -278 0&#10;-5 27 -58 61 -118 161 -287 233 -418 286 -521 15 -29 32 -53 39 -53 16 0 114&#10;149 114 175 0 11 -4 25 -9 30 -5 6 -33 57 -64 115 -81 154 -132 249 -161 300&#10;-31 54 -32 74 -6 123 18 33 20 56 20 201 0 226 -6 238 -66 124z"/>
<path d="M810 743 c0 -10 33 -29 165 -96 55 -28 128 -68 163 -89 34 -21 64&#10;-38 66 -38 2 0 59 -32 125 -70 67 -39 126 -70 132 -70 6 0 82 41 170 91 185&#10;105 248 140 382 210 53 28 97 55 97 60 0 5 -78 8 -187 6 l-188 -3 -137 -72&#10;-138 -73 -42 25 c-24 14 -54 30 -67 36 -12 6 -47 26 -77 46 l-54 36 -205 4&#10;c-113 3 -205 1 -205 -3z"/>
</g>
</svg>